<mxfile host="app.diagrams.net" modified="2023-07-16T05:37:46.272Z" agent="Mozilla/5.0 (Windows NT 10.0; Win64; x64) AppleWebKit/537.36 (KHTML, like Gecko) Chrome/114.0.0.0 Safari/537.36" etag="G4h4LHRkMefGNm28PBiw" version="21.6.2" type="github" pages="2">
  <diagram id="C5RBs43oDa-KdzZeNtuy" name="getDraft">
    <mxGraphModel dx="662" dy="365" grid="1" gridSize="10" guides="1" tooltips="1" connect="1" arrows="1" fold="1" page="1" pageScale="1" pageWidth="827" pageHeight="1169" math="0" shadow="0">
      <root>
        <mxCell id="WIyWlLk6GJQsqaUBKTNV-0" />
        <mxCell id="WIyWlLk6GJQsqaUBKTNV-1" parent="WIyWlLk6GJQsqaUBKTNV-0" />
        <mxCell id="QhTEF3QeC554JLiS9l5Z-12" style="edgeStyle=orthogonalEdgeStyle;rounded=0;orthogonalLoop=1;jettySize=auto;html=1;" edge="1" parent="WIyWlLk6GJQsqaUBKTNV-1" source="WIyWlLk6GJQsqaUBKTNV-3" target="QhTEF3QeC554JLiS9l5Z-3">
          <mxGeometry relative="1" as="geometry" />
        </mxCell>
        <mxCell id="WIyWlLk6GJQsqaUBKTNV-3" value="Menerima request" style="rounded=1;whiteSpace=wrap;html=1;fontSize=12;glass=0;strokeWidth=1;shadow=0;" parent="WIyWlLk6GJQsqaUBKTNV-1" vertex="1">
          <mxGeometry x="120" y="120" width="120" height="40" as="geometry" />
        </mxCell>
        <mxCell id="QhTEF3QeC554JLiS9l5Z-16" style="edgeStyle=orthogonalEdgeStyle;rounded=0;orthogonalLoop=1;jettySize=auto;html=1;entryX=0.5;entryY=0;entryDx=0;entryDy=0;" edge="1" parent="WIyWlLk6GJQsqaUBKTNV-1" source="WIyWlLk6GJQsqaUBKTNV-6" target="QhTEF3QeC554JLiS9l5Z-8">
          <mxGeometry relative="1" as="geometry" />
        </mxCell>
        <mxCell id="QhTEF3QeC554JLiS9l5Z-17" style="edgeStyle=orthogonalEdgeStyle;rounded=0;orthogonalLoop=1;jettySize=auto;html=1;entryX=0;entryY=0.5;entryDx=0;entryDy=0;" edge="1" parent="WIyWlLk6GJQsqaUBKTNV-1" source="WIyWlLk6GJQsqaUBKTNV-6" target="WIyWlLk6GJQsqaUBKTNV-7">
          <mxGeometry relative="1" as="geometry" />
        </mxCell>
        <mxCell id="WIyWlLk6GJQsqaUBKTNV-6" value="Cek&lt;br&gt;validasi&lt;br&gt;request" style="rhombus;whiteSpace=wrap;html=1;shadow=0;fontFamily=Helvetica;fontSize=12;align=center;strokeWidth=1;spacing=6;spacingTop=-4;" parent="WIyWlLk6GJQsqaUBKTNV-1" vertex="1">
          <mxGeometry x="130" y="440" width="100" height="80" as="geometry" />
        </mxCell>
        <mxCell id="QhTEF3QeC554JLiS9l5Z-21" style="edgeStyle=orthogonalEdgeStyle;rounded=0;orthogonalLoop=1;jettySize=auto;html=1;" edge="1" parent="WIyWlLk6GJQsqaUBKTNV-1" source="WIyWlLk6GJQsqaUBKTNV-7" target="QhTEF3QeC554JLiS9l5Z-7">
          <mxGeometry relative="1" as="geometry" />
        </mxCell>
        <mxCell id="WIyWlLk6GJQsqaUBKTNV-7" value="Mengembalikan pesan error" style="rounded=1;whiteSpace=wrap;html=1;fontSize=12;glass=0;strokeWidth=1;shadow=0;" parent="WIyWlLk6GJQsqaUBKTNV-1" vertex="1">
          <mxGeometry x="279" y="460" width="120" height="40" as="geometry" />
        </mxCell>
        <mxCell id="QhTEF3QeC554JLiS9l5Z-11" style="edgeStyle=orthogonalEdgeStyle;rounded=0;orthogonalLoop=1;jettySize=auto;html=1;entryX=0.496;entryY=0.047;entryDx=0;entryDy=0;entryPerimeter=0;" edge="1" parent="WIyWlLk6GJQsqaUBKTNV-1" source="DE22jxm-203Tzr5YV95K-0" target="WIyWlLk6GJQsqaUBKTNV-3">
          <mxGeometry relative="1" as="geometry" />
        </mxCell>
        <mxCell id="DE22jxm-203Tzr5YV95K-0" value="Mulai" style="ellipse;whiteSpace=wrap;html=1;aspect=fixed;" parent="WIyWlLk6GJQsqaUBKTNV-1" vertex="1">
          <mxGeometry x="150" y="20" width="60" height="60" as="geometry" />
        </mxCell>
        <mxCell id="QhTEF3QeC554JLiS9l5Z-10" style="edgeStyle=orthogonalEdgeStyle;rounded=0;orthogonalLoop=1;jettySize=auto;html=1;entryX=0.501;entryY=0.047;entryDx=0;entryDy=0;entryPerimeter=0;" edge="1" parent="WIyWlLk6GJQsqaUBKTNV-1" source="QhTEF3QeC554JLiS9l5Z-3" target="QhTEF3QeC554JLiS9l5Z-4">
          <mxGeometry relative="1" as="geometry" />
        </mxCell>
        <mxCell id="QhTEF3QeC554JLiS9l5Z-3" value="Mengakses route" style="rounded=1;whiteSpace=wrap;html=1;fontSize=12;glass=0;strokeWidth=1;shadow=0;" vertex="1" parent="WIyWlLk6GJQsqaUBKTNV-1">
          <mxGeometry x="120" y="200" width="120" height="40" as="geometry" />
        </mxCell>
        <mxCell id="QhTEF3QeC554JLiS9l5Z-13" style="edgeStyle=orthogonalEdgeStyle;rounded=0;orthogonalLoop=1;jettySize=auto;html=1;entryX=0.499;entryY=0.08;entryDx=0;entryDy=0;entryPerimeter=0;" edge="1" parent="WIyWlLk6GJQsqaUBKTNV-1" source="QhTEF3QeC554JLiS9l5Z-4" target="QhTEF3QeC554JLiS9l5Z-5">
          <mxGeometry relative="1" as="geometry" />
        </mxCell>
        <mxCell id="QhTEF3QeC554JLiS9l5Z-4" value="Membaca controller fungsi getDraft" style="rounded=1;whiteSpace=wrap;html=1;fontSize=12;glass=0;strokeWidth=1;shadow=0;" vertex="1" parent="WIyWlLk6GJQsqaUBKTNV-1">
          <mxGeometry x="120" y="280" width="120" height="40" as="geometry" />
        </mxCell>
        <mxCell id="QhTEF3QeC554JLiS9l5Z-14" value="" style="edgeStyle=orthogonalEdgeStyle;rounded=0;orthogonalLoop=1;jettySize=auto;html=1;" edge="1" parent="WIyWlLk6GJQsqaUBKTNV-1" source="QhTEF3QeC554JLiS9l5Z-5" target="WIyWlLk6GJQsqaUBKTNV-6">
          <mxGeometry relative="1" as="geometry" />
        </mxCell>
        <mxCell id="QhTEF3QeC554JLiS9l5Z-5" value="Mengirimkan request ke cekGetDraft pada ValidateInput.php" style="rounded=1;whiteSpace=wrap;html=1;fontSize=12;glass=0;strokeWidth=1;shadow=0;" vertex="1" parent="WIyWlLk6GJQsqaUBKTNV-1">
          <mxGeometry x="80" y="360" width="199" height="40" as="geometry" />
        </mxCell>
        <mxCell id="QhTEF3QeC554JLiS9l5Z-7" value="Selesai" style="ellipse;whiteSpace=wrap;html=1;aspect=fixed;" vertex="1" parent="WIyWlLk6GJQsqaUBKTNV-1">
          <mxGeometry x="309" y="540" width="60" height="60" as="geometry" />
        </mxCell>
        <mxCell id="QhTEF3QeC554JLiS9l5Z-38" style="edgeStyle=orthogonalEdgeStyle;rounded=0;orthogonalLoop=1;jettySize=auto;html=1;entryX=0.506;entryY=-0.017;entryDx=0;entryDy=0;entryPerimeter=0;" edge="1" parent="WIyWlLk6GJQsqaUBKTNV-1" source="QhTEF3QeC554JLiS9l5Z-8" target="QhTEF3QeC554JLiS9l5Z-34">
          <mxGeometry relative="1" as="geometry" />
        </mxCell>
        <mxCell id="QhTEF3QeC554JLiS9l5Z-8" value="Mengembalikan data tervalidasi" style="rounded=1;whiteSpace=wrap;html=1;fontSize=12;glass=0;strokeWidth=1;shadow=0;" vertex="1" parent="WIyWlLk6GJQsqaUBKTNV-1">
          <mxGeometry x="120" y="560" width="120" height="40" as="geometry" />
        </mxCell>
        <mxCell id="QhTEF3QeC554JLiS9l5Z-18" value="Yes" style="text;html=1;strokeColor=none;fillColor=none;align=center;verticalAlign=middle;whiteSpace=wrap;rounded=0;" vertex="1" parent="WIyWlLk6GJQsqaUBKTNV-1">
          <mxGeometry x="170" y="520" width="60" height="30" as="geometry" />
        </mxCell>
        <mxCell id="QhTEF3QeC554JLiS9l5Z-20" value="No" style="text;html=1;strokeColor=none;fillColor=none;align=center;verticalAlign=middle;whiteSpace=wrap;rounded=0;" vertex="1" parent="WIyWlLk6GJQsqaUBKTNV-1">
          <mxGeometry x="230" y="450" width="60" height="30" as="geometry" />
        </mxCell>
        <mxCell id="QhTEF3QeC554JLiS9l5Z-28" style="edgeStyle=orthogonalEdgeStyle;rounded=0;orthogonalLoop=1;jettySize=auto;html=1;entryX=0;entryY=0.5;entryDx=0;entryDy=0;" edge="1" parent="WIyWlLk6GJQsqaUBKTNV-1" source="QhTEF3QeC554JLiS9l5Z-29" target="QhTEF3QeC554JLiS9l5Z-31">
          <mxGeometry relative="1" as="geometry" />
        </mxCell>
        <mxCell id="QhTEF3QeC554JLiS9l5Z-43" style="edgeStyle=orthogonalEdgeStyle;rounded=0;orthogonalLoop=1;jettySize=auto;html=1;entryX=0.5;entryY=0;entryDx=0;entryDy=0;" edge="1" parent="WIyWlLk6GJQsqaUBKTNV-1" source="QhTEF3QeC554JLiS9l5Z-29" target="QhTEF3QeC554JLiS9l5Z-40">
          <mxGeometry relative="1" as="geometry" />
        </mxCell>
        <mxCell id="QhTEF3QeC554JLiS9l5Z-29" value="Cek &lt;br&gt;data dari&lt;br&gt;database" style="rhombus;whiteSpace=wrap;html=1;shadow=0;fontFamily=Helvetica;fontSize=12;align=center;strokeWidth=1;spacing=6;spacingTop=-4;" vertex="1" parent="WIyWlLk6GJQsqaUBKTNV-1">
          <mxGeometry x="130" y="800" width="100" height="80" as="geometry" />
        </mxCell>
        <mxCell id="QhTEF3QeC554JLiS9l5Z-53" style="edgeStyle=orthogonalEdgeStyle;rounded=0;orthogonalLoop=1;jettySize=auto;html=1;entryX=0.5;entryY=0;entryDx=0;entryDy=0;" edge="1" parent="WIyWlLk6GJQsqaUBKTNV-1" source="QhTEF3QeC554JLiS9l5Z-31" target="QhTEF3QeC554JLiS9l5Z-46">
          <mxGeometry relative="1" as="geometry">
            <Array as="points">
              <mxPoint x="340" y="1000" />
            </Array>
          </mxGeometry>
        </mxCell>
        <mxCell id="QhTEF3QeC554JLiS9l5Z-31" value="Mengembalikan data false" style="rounded=1;whiteSpace=wrap;html=1;fontSize=12;glass=0;strokeWidth=1;shadow=0;" vertex="1" parent="WIyWlLk6GJQsqaUBKTNV-1">
          <mxGeometry x="279" y="820" width="120" height="40" as="geometry" />
        </mxCell>
        <mxCell id="QhTEF3QeC554JLiS9l5Z-33" value="No" style="text;html=1;strokeColor=none;fillColor=none;align=center;verticalAlign=middle;whiteSpace=wrap;rounded=0;" vertex="1" parent="WIyWlLk6GJQsqaUBKTNV-1">
          <mxGeometry x="219" y="810" width="60" height="30" as="geometry" />
        </mxCell>
        <mxCell id="QhTEF3QeC554JLiS9l5Z-41" value="" style="edgeStyle=orthogonalEdgeStyle;rounded=0;orthogonalLoop=1;jettySize=auto;html=1;" edge="1" parent="WIyWlLk6GJQsqaUBKTNV-1" source="QhTEF3QeC554JLiS9l5Z-34" target="QhTEF3QeC554JLiS9l5Z-39">
          <mxGeometry relative="1" as="geometry" />
        </mxCell>
        <mxCell id="QhTEF3QeC554JLiS9l5Z-34" value="Mengirimkan data tervalidasi ke getDraft pada DraftRepository.php" style="rounded=1;whiteSpace=wrap;html=1;fontSize=12;glass=0;strokeWidth=1;shadow=0;" vertex="1" parent="WIyWlLk6GJQsqaUBKTNV-1">
          <mxGeometry x="79" y="640" width="200" height="40" as="geometry" />
        </mxCell>
        <mxCell id="QhTEF3QeC554JLiS9l5Z-44" style="edgeStyle=orthogonalEdgeStyle;rounded=0;orthogonalLoop=1;jettySize=auto;html=1;entryX=0.5;entryY=0;entryDx=0;entryDy=0;" edge="1" parent="WIyWlLk6GJQsqaUBKTNV-1" source="QhTEF3QeC554JLiS9l5Z-39" target="QhTEF3QeC554JLiS9l5Z-29">
          <mxGeometry relative="1" as="geometry" />
        </mxCell>
        <mxCell id="QhTEF3QeC554JLiS9l5Z-39" value="Mengambil data dari database" style="rounded=1;whiteSpace=wrap;html=1;fontSize=12;glass=0;strokeWidth=1;shadow=0;" vertex="1" parent="WIyWlLk6GJQsqaUBKTNV-1">
          <mxGeometry x="79" y="720" width="200" height="40" as="geometry" />
        </mxCell>
        <mxCell id="QhTEF3QeC554JLiS9l5Z-52" style="edgeStyle=orthogonalEdgeStyle;rounded=0;orthogonalLoop=1;jettySize=auto;html=1;entryX=0.5;entryY=0;entryDx=0;entryDy=0;" edge="1" parent="WIyWlLk6GJQsqaUBKTNV-1" source="QhTEF3QeC554JLiS9l5Z-40" target="QhTEF3QeC554JLiS9l5Z-46">
          <mxGeometry relative="1" as="geometry" />
        </mxCell>
        <mxCell id="QhTEF3QeC554JLiS9l5Z-40" value="Mengembalikan data dari database" style="rounded=1;whiteSpace=wrap;html=1;fontSize=12;glass=0;strokeWidth=1;shadow=0;" vertex="1" parent="WIyWlLk6GJQsqaUBKTNV-1">
          <mxGeometry x="119.5" y="920" width="120" height="40" as="geometry" />
        </mxCell>
        <mxCell id="QhTEF3QeC554JLiS9l5Z-45" style="edgeStyle=orthogonalEdgeStyle;rounded=0;orthogonalLoop=1;jettySize=auto;html=1;entryX=0;entryY=0.5;entryDx=0;entryDy=0;" edge="1" parent="WIyWlLk6GJQsqaUBKTNV-1" source="QhTEF3QeC554JLiS9l5Z-46">
          <mxGeometry relative="1" as="geometry">
            <mxPoint x="279.0000000000001" y="1040" as="targetPoint" />
          </mxGeometry>
        </mxCell>
        <mxCell id="QhTEF3QeC554JLiS9l5Z-56" style="edgeStyle=orthogonalEdgeStyle;rounded=0;orthogonalLoop=1;jettySize=auto;html=1;entryX=0.5;entryY=0;entryDx=0;entryDy=0;" edge="1" parent="WIyWlLk6GJQsqaUBKTNV-1" source="QhTEF3QeC554JLiS9l5Z-46" target="QhTEF3QeC554JLiS9l5Z-54">
          <mxGeometry relative="1" as="geometry" />
        </mxCell>
        <mxCell id="QhTEF3QeC554JLiS9l5Z-46" value="Cek hasil&lt;br&gt;pengembalian" style="rhombus;whiteSpace=wrap;html=1;shadow=0;fontFamily=Helvetica;fontSize=12;align=center;strokeWidth=1;spacing=6;spacingTop=-4;" vertex="1" parent="WIyWlLk6GJQsqaUBKTNV-1">
          <mxGeometry x="130" y="1000" width="100" height="80" as="geometry" />
        </mxCell>
        <mxCell id="QhTEF3QeC554JLiS9l5Z-50" value="False" style="text;html=1;strokeColor=none;fillColor=none;align=center;verticalAlign=middle;whiteSpace=wrap;rounded=0;" vertex="1" parent="WIyWlLk6GJQsqaUBKTNV-1">
          <mxGeometry x="219" y="1010" width="60" height="30" as="geometry" />
        </mxCell>
        <mxCell id="QhTEF3QeC554JLiS9l5Z-57" style="edgeStyle=orthogonalEdgeStyle;rounded=0;orthogonalLoop=1;jettySize=auto;html=1;entryX=0.5;entryY=0;entryDx=0;entryDy=0;" edge="1" parent="WIyWlLk6GJQsqaUBKTNV-1" source="QhTEF3QeC554JLiS9l5Z-54" target="QhTEF3QeC554JLiS9l5Z-55">
          <mxGeometry relative="1" as="geometry" />
        </mxCell>
        <mxCell id="QhTEF3QeC554JLiS9l5Z-54" value="Membuat respon berupa json" style="rounded=1;whiteSpace=wrap;html=1;fontSize=12;glass=0;strokeWidth=1;shadow=0;" vertex="1" parent="WIyWlLk6GJQsqaUBKTNV-1">
          <mxGeometry x="119" y="1120" width="120" height="40" as="geometry" />
        </mxCell>
        <mxCell id="QhTEF3QeC554JLiS9l5Z-59" style="edgeStyle=orthogonalEdgeStyle;rounded=0;orthogonalLoop=1;jettySize=auto;html=1;" edge="1" parent="WIyWlLk6GJQsqaUBKTNV-1" source="QhTEF3QeC554JLiS9l5Z-55" target="QhTEF3QeC554JLiS9l5Z-58">
          <mxGeometry relative="1" as="geometry" />
        </mxCell>
        <mxCell id="QhTEF3QeC554JLiS9l5Z-55" value="Mengembalikan respon" style="rounded=1;whiteSpace=wrap;html=1;fontSize=12;glass=0;strokeWidth=1;shadow=0;" vertex="1" parent="WIyWlLk6GJQsqaUBKTNV-1">
          <mxGeometry x="119" y="1200" width="120" height="40" as="geometry" />
        </mxCell>
        <mxCell id="QhTEF3QeC554JLiS9l5Z-58" value="Selesai" style="ellipse;whiteSpace=wrap;html=1;aspect=fixed;" vertex="1" parent="WIyWlLk6GJQsqaUBKTNV-1">
          <mxGeometry x="149" y="1280" width="60" height="60" as="geometry" />
        </mxCell>
        <mxCell id="QhTEF3QeC554JLiS9l5Z-64" style="edgeStyle=orthogonalEdgeStyle;rounded=0;orthogonalLoop=1;jettySize=auto;html=1;entryX=0;entryY=0.5;entryDx=0;entryDy=0;" edge="1" parent="WIyWlLk6GJQsqaUBKTNV-1" source="QhTEF3QeC554JLiS9l5Z-65" target="QhTEF3QeC554JLiS9l5Z-69">
          <mxGeometry relative="1" as="geometry" />
        </mxCell>
        <mxCell id="QhTEF3QeC554JLiS9l5Z-65" value="Memanggil exception" style="rounded=1;whiteSpace=wrap;html=1;fontSize=12;glass=0;strokeWidth=1;shadow=0;" vertex="1" parent="WIyWlLk6GJQsqaUBKTNV-1">
          <mxGeometry x="279" y="1020" width="120" height="40" as="geometry" />
        </mxCell>
        <mxCell id="QhTEF3QeC554JLiS9l5Z-66" value="Selesai" style="ellipse;whiteSpace=wrap;html=1;aspect=fixed;" vertex="1" parent="WIyWlLk6GJQsqaUBKTNV-1">
          <mxGeometry x="470" y="1100" width="60" height="60" as="geometry" />
        </mxCell>
        <mxCell id="QhTEF3QeC554JLiS9l5Z-68" style="edgeStyle=orthogonalEdgeStyle;rounded=0;orthogonalLoop=1;jettySize=auto;html=1;" edge="1" parent="WIyWlLk6GJQsqaUBKTNV-1" source="QhTEF3QeC554JLiS9l5Z-69" target="QhTEF3QeC554JLiS9l5Z-66">
          <mxGeometry relative="1" as="geometry" />
        </mxCell>
        <mxCell id="QhTEF3QeC554JLiS9l5Z-69" value="Mengembalikan pesan error" style="rounded=1;whiteSpace=wrap;html=1;fontSize=12;glass=0;strokeWidth=1;shadow=0;" vertex="1" parent="WIyWlLk6GJQsqaUBKTNV-1">
          <mxGeometry x="440" y="1020" width="120" height="40" as="geometry" />
        </mxCell>
      </root>
    </mxGraphModel>
  </diagram>
  <diagram id="CopE_BnacZWBsw4BxfPh" name="Page-2">
    <mxGraphModel dx="794" dy="438" grid="1" gridSize="10" guides="1" tooltips="1" connect="1" arrows="1" fold="1" page="1" pageScale="1" pageWidth="850" pageHeight="1400" math="0" shadow="0">
      <root>
        <mxCell id="0" />
        <mxCell id="1" parent="0" />
      </root>
    </mxGraphModel>
  </diagram>
</mxfile>
